<?xml version="1.0" encoding="iso-8859-1"?>
<!-- Generator: Adobe Illustrator 19.0.0, SVG Export Plug-In . SVG Version: 6.00 Build 0)  -->
<svg version="1.1" id="Capa_1" xmlns="http://www.w3.org/2000/svg" xmlns:xlink="http://www.w3.org/1999/xlink" x="0px" y="0px"
	 viewBox="0 0 511.999 511.999" style="enable-background:new 0 0 511.999 511.999;" xml:space="preserve">
<path style="fill:#FF6D24;" d="M358.286,402.057l-87.682-87.682l37.162-37.162l-45.59-45.59l19.111-19.111l72.262,72.262
	l-7.208-85.023c-1.166-13.758-5.432-26.555-12.042-37.763l-7.421-7.421l1.454-1.454l0,0l-47.044,47.044l-19.111-19.111
	l46.682-46.682c-14.592-10.311-32.371-16.344-51.469-16.344l0,0c-19.807,0-38.192,6.494-53.077,17.515l45.51,45.51l-19.111,19.111
	l-45.447-45.447c-9.344,12.798-15.399,28.202-16.827,45.041l-3.257,38.412l19.94,19.94l45.59-45.59l19.111,19.111l-91.876,91.876
	L142.601,504.5h229.578l-9.092-107.242L358.286,402.057z"/>
<g>
	<path style="fill:#D80029;" d="M197.886,245.336l-7.175-7.175l3.257-38.412c0.869-10.248,3.46-19.96,7.455-28.881l-16.159-16.159
		c-9.344,12.798-15.399,28.202-16.827,45.041l-3.257,38.412l19.94,19.94L197.886,245.336z"/>
	<polygon style="fill:#D80029;" points="268.765,238.209 262.177,231.622 268.765,225.034 256.24,212.511 243.475,225.275 
		249.822,231.622 157.946,323.498 142.601,504.498 168.13,504.498 183.476,323.498 	"/>
	<path style="fill:#D80029;" d="M243.475,187.391l12.765,12.765l12.524-12.524l-6.588-6.588l6.588-6.588l-38.922-38.922
		c11.632-8.613,25.408-14.443,40.323-16.588c-4.178-0.601-8.44-0.927-12.776-0.927l0,0c-19.807,0-38.192,6.494-53.077,17.515
		l45.51,45.51L243.475,187.391z"/>
</g>
<rect x="160.112" y="29.73" transform="matrix(-0.7071 0.7071 -0.7071 -0.7071 384.0547 88.8512)" style="fill:#7C84E7;" width="27.027" height="188.471"/>
<rect x="152.693" y="11.033" transform="matrix(-0.7071 0.7071 -0.7071 -0.7071 357.1654 -1.8725)" style="fill:#FEDA44;" width="52.554" height="124.004"/>
<rect x="324.852" y="29.719" transform="matrix(-0.7071 -0.7071 0.7071 -0.7071 489.9763 450.865)" style="fill:#7C84E7;" width="27.027" height="188.471"/>
<rect x="363.017" y="67.301" transform="matrix(-0.7071 -0.7071 0.7071 -0.7071 573.136 496.0067)" style="fill:#FEDA44;" width="52.554" height="124.004"/>
<rect x="324.867" y="194.463" transform="matrix(0.7071 -0.7071 0.7071 0.7071 -105.0315 323.8288)" style="fill:#7C84E7;" width="27.027" height="188.471"/>
<rect x="306.748" y="277.626" transform="matrix(0.7071 -0.7071 0.7071 0.7071 -142.6124 334.9594)" style="fill:#FEDA44;" width="52.554" height="124.004"/>
<rect x="160.119" y="194.474" transform="matrix(0.7071 0.7071 -0.7071 0.7071 255.0043 -38.2157)" style="fill:#7C84E7;" width="27.027" height="188.471"/>
<g>
	<polygon style="fill:#016EF1;" points="241.214,189.652 118.444,66.884 127.053,58.275 116.55,47.772 97.438,66.884 
		230.711,200.155 	"/>
	<polygon style="fill:#016EF1;" points="270.828,181.044 266.502,185.37 281.288,200.155 291.791,189.652 283.183,181.044 
		405.952,58.275 395.449,47.772 266.502,176.719 	"/>
	<polygon style="fill:#016EF1;" points="283.183,231.622 291.791,223.014 281.288,212.511 266.502,227.296 270.828,231.622 
		266.502,235.947 395.449,364.894 405.952,354.391 	"/>
	<polygon style="fill:#016EF1;" points="118.444,345.782 241.214,223.014 230.711,212.511 97.438,345.782 116.55,364.894 
		127.053,354.391 	"/>
</g>
<rect x="96.424" y="221.364" transform="matrix(0.7071 0.7071 -0.7071 0.7071 236.3084 -3.767)" style="fill:#FEDA44;" width="52.554" height="124.004"/>
<g>
	<polygon style="fill:#FF9911;" points="375.647,180.123 350.089,154.565 426.166,78.489 414.56,66.884 326.878,154.565 
		364.041,191.729 	"/>
	<polygon style="fill:#FF9911;" points="215.838,123.849 139.761,47.772 165.318,22.215 153.712,10.609 116.55,47.772 
		204.231,135.454 	"/>
	<polygon style="fill:#FF9911;" points="293.816,314.374 319.373,288.817 307.767,277.212 270.604,314.374 358.286,402.057 
		369.891,390.451 	"/>
	<polygon style="fill:#FF9911;" points="83.486,308.62 159.563,232.543 147.958,220.938 60.276,308.62 97.438,345.782 
		109.045,334.177 	"/>
</g>
<circle style="fill:#FEDA44;" cx="256.001" cy="206.338" r="21.006"/>
<path style="fill:#FF9911;" d="M251.78,206.333c0-8.615,5.191-16.01,12.613-19.25c-2.572-1.123-5.408-1.755-8.393-1.755
	c-11.601,0-21.006,9.405-21.006,21.006s9.405,21.006,21.006,21.006c2.986,0,5.822-0.632,8.393-1.755
	C256.972,222.344,251.78,214.948,251.78,206.333z"/>
<rect x="215.38" y="383.478" style="fill:#FEDA44;" width="84.024" height="121.024"/>
<rect x="215.38" y="383.478" style="fill:#FF9911;" width="30.72" height="121.024"/>
<path style="fill:#7C84E7;" d="M215.378,467.487v37.01h-72.776l3.138-37.01H215.378z M369.041,467.487h-69.64v37.01h72.776
	L369.041,467.487z"/>
<g>
	<polygon style="fill:#016EF1;" points="145.739,467.487 142.601,504.498 166.425,504.498 169.563,467.487 	"/>
	<rect x="299.403" y="467.491" style="fill:#016EF1;" width="23.824" height="37.01"/>
</g>
<g>
	<path style="fill:#FFFFFF;" d="M329.321,185.655l-14.625,3.351c0.853,3.723,1.449,7.551,1.774,11.378l14.95-1.268
		C331.037,194.59,330.331,190.061,329.321,185.655z"/>
	
		<rect x="311.958" y="212.483" transform="matrix(0.0845 0.9964 -0.9964 0.0845 517.3282 -123.0883)" style="fill:#FFFFFF;" width="27.381" height="15.004"/>
	
		<rect x="175.067" y="362.93" transform="matrix(0.9964 0.0845 -0.0845 0.9964 33.9952 -14.0162)" style="fill:#FFFFFF;" width="15.004" height="63.286"/>
	
		<rect x="179.993" y="323.472" transform="matrix(0.9964 0.0844 -0.0844 0.9964 29.0685 -14.6245)" style="fill:#FFFFFF;" width="15.004" height="26.006"/>
</g>
<path d="M113.797,116.488c-16.999,26.852-25.984,57.919-25.984,89.845h15.004c0-29.08,8.18-57.372,23.658-81.819L113.797,116.488z"
	/>
<path d="M92.361,245.34l14.598-3.468c-1.747-7.357-2.957-14.925-3.595-22.494l-14.951,1.26
	C89.113,228.948,90.441,237.26,92.361,245.34z"/>
<path d="M255.999,359.516c-17.017,0-33.727-2.769-49.668-8.229l-4.862,14.194c17.509,5.998,35.856,9.04,54.53,9.04
	c11.694,0,23.379-1.208,34.728-3.591l-3.083-14.684C277.307,358.415,266.66,359.516,255.999,359.516z"/>
<path d="M403.883,286.506c13.283-24.451,20.304-52.175,20.304-80.173c0-7.665-0.521-15.375-1.549-22.918l-14.866,2.027
	c0.937,6.874,1.412,13.902,1.412,20.892c0,25.505-6.392,50.751-18.484,73.011L403.883,286.506z"/>
<path d="M340.182,60.7c-22.763-13.187-48.718-20.901-75.056-22.31l-0.802,14.983c23.984,1.283,47.615,8.307,68.338,20.311
	L340.182,60.7z"/>
<path d="M255.999,53.151V38.147c-7.331,0-14.708,0.477-21.926,1.417l1.939,14.878C242.589,53.585,249.314,53.151,255.999,53.151z"/>
<polygon points="158.558,405.088 143.615,403.717 141.841,424.653 156.782,426.025 "/>
<rect x="377.192" y="305.426" transform="matrix(-0.7071 0.7071 -0.7071 -0.7071 880.1092 267.3041)" width="15.004" height="21.006"/>
<path d="M397.434,339.265l6.517,6.517l-8.502,8.501l-77.073-77.073l-10.609-10.609l-34.981-34.981l8.502-8.502l80.069,80.07
	l10.61-10.61l-11.173-11.173l-6.976-82.29c-0.229-2.7-0.567-5.372-1.012-8.014l11.236,11.236l98.292-98.292l-37.162-37.162
	l-10.609-10.609L395.45,37.162l-87.583,87.583c-15.191-9.319-32.509-14.228-50.476-14.228c-6.656,0-13.211,0.675-19.599,1.988
	l14.214-14.214L153.712,0L116.55,37.162l-10.609,10.609L86.829,66.884l88.745,88.745c-8.272,13.084-13.298,27.991-14.612,43.487
	l-1.893,22.324l-11.112-11.112L49.666,308.62l37.162,37.163l0,0l4.069,4.069l6.541,6.541l0,0l19.111,19.111l32.187-32.187
	l-3.853,45.449l14.942,1.371l5.365-63.274L256,236.053l41.158,41.158l-37.162,37.162l0,0l0,0l96.737,96.737l4.143,48.874h-53.972
	v-84.013h-99.028v84.013h-30.008v-10.503h-15.004v10.503h-8.96l1.611-19.01l-14.941-1.371l-6.138,72.396h73.44h15.004h69.019h15.004
	h73.44l-4.409-52.015l0,0l-5.077-59.889l28.662-28.662l25.652-25.651l-17.127-17.127L397.434,339.265z M433.142,96.074l7.972,7.972
	l-6.825,6.825l-7.972-7.972L433.142,96.074z M78.857,316.592l-7.972-7.972l6.825-6.825l7.972,7.972L78.857,316.592z M285.72,206.333
	l41.158-41.158l1.428,1.428c5.991,10.418,9.543,21.777,10.56,33.78l5.475,64.57L285.72,206.333z M345.459,162.538l-7.972-7.972
	l6.825-6.825l7.972,7.972L345.459,162.538z M364.04,181.119l-7.972-7.972l6.826-6.826l7.972,7.972L364.04,181.119z M354.922,137.131
	l6.995-6.995l7.972,7.972l-6.995,6.995L354.922,137.131z M381.476,163.684l-7.972-7.972l6.995-6.995l7.972,7.972L381.476,163.684z
	 M372.526,119.527l6.995-6.995l7.972,7.972l-6.995,6.995L372.526,119.527z M416.684,128.476l-7.972-7.972l6.995-6.995l7.972,7.972
	L416.684,128.476z M414.56,77.493l7.972,7.972l-6.825,6.825l-7.972-7.972L414.56,77.493z M399.08,146.08l-7.972-7.972l6.995-6.995
	l7.972,7.972L399.08,146.08z M398.102,109.895l-7.972-7.972l6.995-6.995l7.972,7.972L398.102,109.895z M395.448,58.381l8.502,8.502
	l-87.682,87.682l-34.981,34.981l-8.502-8.501L395.448,58.381z M257.389,125.521c13.959,0,27.459,3.498,39.519,10.182l-39.148,39.149
	l-1.76,1.76l-1.7-1.7l-38.197-38.197C228.597,129.368,242.71,125.521,257.389,125.521z M223.96,91.466l6.825,6.825l-7.972,7.972
	l-6.825-6.825L223.96,91.466z M206.356,73.862l6.995,6.995l-7.972,7.972l-6.995-6.995L206.356,73.862z M205.379,110.047l6.825,6.825
	l-7.972,7.972l-6.825-6.825L205.379,110.047z M188.752,56.258l6.995,6.995l-7.972,7.972l-6.995-6.995L188.752,56.258z
	 M187.774,92.443l6.995,6.995l-7.972,7.972l-6.995-6.995L187.774,92.443z M171.147,38.654l6.995,6.995l-7.972,7.972l-6.995-6.995
	L171.147,38.654z M170.17,74.839l6.995,6.995l-7.972,7.972l-6.995-6.995L170.17,74.839z M153.712,21.219l6.825,6.825l-7.972,7.972
	l-6.825-6.825L153.712,21.219z M152.566,57.235l6.995,6.995l-7.972,7.972l-6.995-6.995L152.566,57.235z M135.131,39.8l6.825,6.825
	l-7.972,7.972l-6.825-6.825L135.131,39.8z M175.514,205.081H203.9v-15.004h-26.44c1.78-8.26,4.823-16.197,9.039-23.523
	l39.779,39.779l-24.753,24.754l-16.405,16.405l-12.17-12.17L175.514,205.081z M166.539,250.128l7.972,7.972l-6.825,6.825
	l-7.972-7.972L166.539,250.128z M147.958,231.547l7.972,7.972l-6.826,6.826l-7.972-7.972L147.958,231.547z M157.076,275.535
	l-6.995,6.995l-7.972-7.972l6.995-6.995L157.076,275.535z M130.523,248.982l7.972,7.972l-6.995,6.995l-7.972-7.972L130.523,248.982z
	 M139.472,293.139l-6.995,6.995l-7.972-7.972l6.995-6.995L139.472,293.139z M95.315,284.19l7.972,7.972l-6.995,6.995l-7.972-7.972
	L95.315,284.19z M97.438,335.173l-7.972-7.972l6.825-6.825l7.972,7.972L97.438,335.173z M112.919,266.586l7.972,7.972l-6.995,6.995
	l-7.972-7.972L112.919,266.586z M113.896,302.772l7.972,7.972l-6.995,6.995l-7.972-7.972L113.896,302.772z M150.702,320.132
	l-34.153,34.153l-8.502-8.501l77.073-77.073l0,0l45.59-45.591l8.502,8.502L150.702,320.132z M230.71,189.546l-23.169-23.169
	l-23.169-23.17l0,0l-76.324-76.324l8.502-8.502l76.302,76.303l0,0l46.36,46.36L230.71,189.546z M255.999,219.837
	c-7.446,0-13.504-6.058-13.504-13.504s6.058-13.504,13.504-13.504c7.446,0,13.504,6.058,13.504,13.504
	S263.445,219.837,255.999,219.837z M288.039,321.2l-6.825-6.825l7.972-7.972l6.825,6.825L288.039,321.2z M207.875,496.996h-57.11
	l1.867-22.006h55.244V496.996z M285.059,390.978l-27.671,39.855l-27.671-39.855H285.059z M222.88,459.985v-52.55l25.377,36.551
	l-25.377,36.551V459.985z M229.719,496.996l27.671-39.855l27.671,39.855H229.719z M291.899,459.985v20.553l-25.377-36.551
	l25.377-36.551V459.985z M305.643,338.804l-6.995-6.995l7.972-7.972l6.995,6.995L305.643,338.804z M306.62,302.619l-6.826-6.826
	l7.972-7.972l6.826,6.826L306.62,302.619z M323.247,356.408l-6.995-6.995l7.972-7.972l6.995,6.995L323.247,356.408z
	 M324.224,320.223l-6.995-6.995l7.972-7.972l6.995,6.995L324.224,320.223z M340.851,374.012l-6.995-6.995l7.972-7.972l6.995,6.995
	L340.851,374.012z M341.828,337.827l-6.995-6.995l7.972-7.972l6.995,6.995L341.828,337.827z M345.87,496.996v-11.003h-15.004v11.003
	h-23.963V474.99h55.245l1.866,22.006H345.87z M358.286,391.447l-6.825-6.825l7.972-7.972l6.825,6.825L358.286,391.447z
	 M359.432,355.431l-6.995-6.995l7.972-7.972l6.995,6.995L359.432,355.431z M376.867,372.866l-6.825-6.825l7.972-7.972l6.825,6.825
	L376.867,372.866z"/>
<g>
</g>
<g>
</g>
<g>
</g>
<g>
</g>
<g>
</g>
<g>
</g>
<g>
</g>
<g>
</g>
<g>
</g>
<g>
</g>
<g>
</g>
<g>
</g>
<g>
</g>
<g>
</g>
<g>
</g>
</svg>
